<svg height="512pt" viewBox="0 -35 512 512" width="512pt" xmlns="http://www.w3.org/2000/svg"><path d="m150.070312 0h211.859376v167.722656h-211.859376zm0 0" fill="#be6e41"/><path d="m44.136719 158.898438h238.347656v167.722656h-238.347656zm0 0" fill="#6c4127"/><path d="m256 158.898438h211.863281v167.722656h-211.863281zm0 0" fill="#be7c6d"/><g fill="#6c4127"><path d="m35.308594 335.449219h52.96875v79.449219h-52.96875zm0 0"/><path d="m414.898438 335.449219h52.964843v79.449219h-52.964843zm0 0"/><path d="m229.515625 335.449219h52.96875v79.449219h-52.96875zm0 0"/></g><path d="m0 317.792969h512v35.308593h-512zm0 0" fill="#be6e41"/><path d="m0 406.070312h512v35.308594h-512zm0 0" fill="#be6e41"/><path d="m114.757812 158.898438v70.617187l35.3125-26.480469 35.308594 26.480469v-70.617187zm0 0" fill="#f7e6a1"/><path d="m326.621094 158.898438v70.617187l35.308594-26.480469 35.3125 26.480469v-70.617187zm0 0" fill="#f7e6a1"/><path d="m220.691406 0v70.621094l35.308594-26.484375 35.308594 26.484375v-70.621094zm0 0" fill="#f7e6a1"/></svg>